<svg xmlns="http://www.w3.org/2000/svg" viewBox="0 0 256 256">
  <defs>
    <linearGradient id="grad1" x1="0%" y1="0%" x2="100%" y2="100%">
      <stop offset="0%" style="stop-color:#6B46C1;stop-opacity:1" />
      <stop offset="100%" style="stop-color:#06B6D4;stop-opacity:1" />
    </linearGradient>
  </defs>
  <rect width="256" height="256" fill="#1a1a2e"/>
  <path d="M60 80 L196 80 L196 200 L60 200 Z" fill="url(#grad1)"/>
  <path d="M60 80 L70 60 L186 60 L196 80 Z" fill="url(#grad1)"/>
  <rect x="70" y="60" width="20" height="20" fill="#1a1a2e"/>
  <rect x="100" y="60" width="20" height="20" fill="#06B6D4"/>
  <rect x="130" y="60" width="20" height="20" fill="#1a1a2e"/>
  <rect x="160" y="60" width="20" height="20" fill="#06B6D4"/>
  <path d="M200 50 L206 66 L223 68 L210 80 L214 97 L200 89 L186 97 L190 80 L177 68 L194 66 Z" fill="#06B6D4"/>
  <circle cx="200" cy="50" r="3" fill="#ffffff"/>
</svg>